<svg xmlns="http://www.w3.org/2000/svg" width="253" height="85" viewBox="0 0 253 85">
  <defs>
    <style>
      .cls-1 {
        fill: #a526c9;
        fill-rule: evenodd;
      }
    </style>
  </defs>
  <path id="Color_Fill_1" data-name="Color Fill 1" class="cls-1" d="M22,10l4,34,3-34H41l3,29h1l3-29H58L52,67H36L34,48,32,69,17,71V69L10,10H22Zm39,0H89v8H73V32l13,1-1,7L73,41V56H89v8L61,66V10Zm31,0c13.052-.693,25.8-1.593,30,7,2.59,8.6-1.15,12.625-4,18,7.786,3.778,6.544,14.643,4,23-6.074,4.241-20.237,7.653-30,5V10Zm35,0h28q-0.5,4-1,8H139V32h12v8H139V63H127V10Zm30,0h12V64l-12-1V10Zm16,0h12V56l16,2v8l-28-2V10Zm29,0h14l7,39q3-19.5,6-39h15V72l-11-1q-0.5-13-1-26l-3,25-12-2q-2-12.5-4-25V68l-11-1V10Zm-98,8V30h6V18h-6Zm0,21V55l8-2c0.207-5.984-.314-10.57-2-14h-6Z"/>
</svg>
